<svg xmlns="http://www.w3.org/2000/svg" viewBox="0 0 24 24" width="32" height="32" fill="none">
  <!-- Folder back -->
  <path
    d="M3 7C3 5.89543 3.89543 5 5 5H10.5858C10.851 5 11.1054 5.10536 11.2929 5.29289L12.7071 6.70711C12.8946 6.89464 13.149 7 13.4142 7H19C20.1046 7 21 7.89543 21 9V18C21 19.1046 20.1046 20 19 20H5C3.89543 20 3 19.1046 3 18V7Z"
    fill="#2563EB"
  />
  <!-- Folder tab -->
  <path
    d="M3 7C3 5.89543 3.89543 5 5 5H10.5858C10.851 5 11.1054 5.10536 11.2929 5.29289L12.7071 6.70711C12.8946 6.89464 13.149 7 13.4142 7H19C20.1046 7 21 7.89543 21 9H3V7Z"
    fill="#1D4ED8"
  />
  <!-- Shine overlay -->
  <path
    d="M3 9H21V11C21 11 15 11.5 12 11.5C9 11.5 3 11 3 11V9Z"
    fill="white"
    fill-opacity="0.08"
  />
</svg>
